# MagicaVoxel @ Ephtracy

# group
o 

# material
mtllib 2.mtl
usemtl palette

# normals
vn -1 0 0
vn 1 0 0
vn 0 0 1
vn 0 0 -1
vn 0 -1 0
vn 0 1 0

# texcoords
vt 0.00195313 0.5
vt 0.00585938 0.5
vt 0.0136719 0.5
vt 0.0253906 0.5
vt 0.0371094 0.5
vt 0.0761719 0.5
vt 0.228516 0.5
vt 0.244141 0.5

# verts
v -0.4 1.1 0.2
v -0.4 1.1 -0.4
v -0.4 1.2 0.2
v -0.4 1.2 -0.4
v -0.3 0.3 0.1
v -0.3 0.3 -0.3
v -0.3 0.4 0.1
v -0.3 0.4 -0.3
v -0.3 0.5 0
v -0.3 0.5 -0.2
v -0.3 0.6 0.2
v -0.3 0.6 0.1
v -0.3 0.6 -0.3
v -0.3 0.6 -0.4
v -0.3 0.7 0.3
v -0.3 0.7 0.2
v -0.3 0.7 0.1
v -0.3 0.7 0
v -0.3 0.7 -0.2
v -0.3 0.7 -0.3
v -0.3 0.7 -0.4
v -0.3 0.7 -0.5
v -0.3 0.8 0.1
v -0.3 0.8 -0.3
v -0.3 0.9 0.3
v -0.3 0.9 0.2
v -0.3 0.9 0.1
v -0.3 0.9 0
v -0.3 0.9 -0.2
v -0.3 0.9 -0.3
v -0.3 0.9 -0.4
v -0.3 0.9 -0.5
v -0.3 1.1 0.2
v -0.3 1.1 0.1
v -0.3 1.1 0
v -0.3 1.1 -0.2
v -0.3 1.1 -0.3
v -0.3 1.1 -0.4
v -0.3 1.2 0.1
v -0.3 1.2 -0.3
v -0.3 1.3 0.1
v -0.3 1.3 -0.3
v -0.2 0 0.1
v -0.2 0 0
v -0.2 0 -0.2
v -0.2 0 -0.3
v -0.2 0.1 0.1
v -0.2 0.1 0
v -0.2 0.1 -0.2
v -0.2 0.1 -0.3
v -0.2 0.3 0.1
v -0.2 0.3 0
v -0.2 0.3 -0.2
v -0.2 0.3 -0.3
v -0.2 0.3 -0.4
v -0.2 0.4 0.4
v -0.2 0.4 0.3
v -0.2 0.4 -0.3
v -0.2 0.4 -0.4
v -0.2 0.5 0.4
v -0.2 0.5 0.3
v -0.2 0.5 0.2
v -0.2 0.6 0.3
v -0.2 0.6 0.2
v -0.2 0.6 -0.3
v -0.2 0.6 -0.4
v -0.2 0.7 0
v -0.2 0.7 -0.2
v -0.2 0.8 0
v -0.2 0.8 -0.2
v -0.1 0.4 -0.1
v -0.1 0.4 -0.2
v -0.1 0.5 -0.1
v -0.1 0.5 -0.2
v 0 0.7 0.2
v 0 0.7 0.1
v 0 0.7 -0.3
v 0 0.7 -0.4
v 0 0.8 0.2
v 0 0.8 0.1
v 0 0.8 -0.3
v 0 0.8 -0.4
v 0.2 0.7 0
v 0.2 0.7 -0.2
v 0.2 1 0.1
v 0.2 1 0
v 0.2 1 -0.2
v 0.2 1 -0.3
v 0.2 1.1 0.1
v 0.2 1.1 0
v 0.2 1.1 -0.2
v 0.2 1.1 -0.3
v 0.3 0.6 0
v 0.3 0.6 -0.2
v 0.3 0.7 0
v 0.3 0.7 -0.2
v -0.2 0.4 -0.1
v -0.2 0.4 -0.2
v -0.2 0.5 -0.1
v -0.2 0.5 -0.2
v -0.2 0.7 0.2
v -0.2 0.7 0.1
v -0.2 0.7 -0.3
v -0.2 0.7 -0.4
v -0.2 0.8 0.2
v -0.2 0.8 0.1
v -0.2 0.8 -0.3
v -0.2 0.8 -0.4
v -0.1 0 0.1
v -0.1 0 0
v -0.1 0 -0.2
v -0.1 0 -0.3
v -0.1 0.1 0.1
v -0.1 0.1 0
v -0.1 0.1 -0.2
v -0.1 0.1 -0.3
v -0.1 0.3 0.1
v -0.1 0.3 0
v -0.1 0.3 -0.2
v -0.1 0.3 -0.3
v -0.1 0.3 -0.4
v -0.1 0.4 0.4
v -0.1 0.4 0.3
v -0.1 0.4 -0.3
v -0.1 0.4 -0.4
v -0.1 0.5 0.4
v -0.1 0.5 0.3
v -0.1 0.5 0.2
v -0.1 0.6 0.3
v -0.1 0.6 0.2
v -0.1 0.6 0.1
v -0.1 0.7 0.2
v -0.1 0.7 0.1
v -0.1 0.7 0
v -0.1 0.7 -0.2
v -0.1 0.7 -0.3
v -0.1 0.7 -0.4
v -0.1 0.8 0
v -0.1 0.8 -0.2
v 0 0.3 0.1
v 0 0.3 -0.3
v 0 0.4 0.1
v 0 0.4 -0.3
v 0 0.7 0.1
v 0 0.7 -0.3
v 0 1.2 0.1
v 0 1.2 -0.3
v 0 1.3 0.1
v 0 1.3 -0.3
v 0.1 0.7 0.3
v 0.1 0.7 -0.5
v 0.1 0.9 0.3
v 0.1 0.9 0.2
v 0.1 0.9 -0.4
v 0.1 0.9 -0.5
v 0.1 1 0
v 0.1 1 -0.2
v 0.1 1.2 0.2
v 0.1 1.2 0
v 0.1 1.2 -0.2
v 0.1 1.2 -0.4
v 0.4 0.6 0
v 0.4 0.6 -0.2
v 0.4 1 0.1
v 0.4 1 0
v 0.4 1 -0.2
v 0.4 1 -0.3
v 0.4 1.1 0.1
v 0.4 1.1 0
v 0.4 1.1 -0.2
v 0.4 1.1 -0.3
v 0.4 1.2 0
v 0.4 1.2 -0.2
v -0.2 0.4 0.4
v -0.2 0.5 0.4
v -0.1 0.4 0.4
v -0.1 0.5 0.4
v -0.3 0.7 0.3
v -0.3 0.9 0.3
v -0.2 0.5 0.3
v -0.2 0.6 0.3
v -0.1 0.5 0.3
v -0.1 0.6 0.3
v 0.1 0.7 0.3
v 0.1 0.9 0.3
v -0.4 1.1 0.2
v -0.4 1.2 0.2
v -0.3 0.6 0.2
v -0.3 0.7 0.2
v -0.3 0.9 0.2
v -0.3 1.1 0.2
v -0.2 0.6 0.2
v -0.2 0.7 0.2
v -0.1 0.6 0.2
v -0.1 0.7 0.2
v 0.1 0.9 0.2
v 0.1 1.2 0.2
v -0.3 0.3 0.1
v -0.3 0.4 0.1
v -0.3 0.6 0.1
v -0.3 1.2 0.1
v -0.3 1.3 0.1
v -0.2 0 0.1
v -0.2 0.1 0.1
v -0.2 0.3 0.1
v -0.2 0.6 0.1
v -0.1 0 0.1
v -0.1 0.1 0.1
v -0.1 0.3 0.1
v -0.1 0.6 0.1
v -0.1 0.7 0.1
v 0 0.3 0.1
v 0 0.4 0.1
v 0 0.7 0.1
v 0 1.2 0.1
v 0 1.3 0.1
v 0.2 1 0.1
v 0.2 1.1 0.1
v 0.4 1 0.1
v 0.4 1.1 0.1
v -0.2 0.7 0
v -0.2 0.8 0
v -0.1 0.7 0
v -0.1 0.8 0
v 0.1 1 0
v 0.1 1.2 0
v 0.2 0.7 0
v 0.2 1 0
v 0.2 1.1 0
v 0.2 1.2 0
v 0.3 0.6 0
v 0.3 0.7 0
v 0.4 0.6 0
v 0.4 1 0
v 0.4 1.1 0
v 0.4 1.2 0
v -0.2 0 -0.2
v -0.2 0.1 -0.2
v -0.2 0.3 -0.2
v -0.2 0.4 -0.2
v -0.2 0.5 -0.2
v -0.1 0 -0.2
v -0.1 0.1 -0.2
v -0.1 0.3 -0.2
v -0.1 0.4 -0.2
v -0.1 0.5 -0.2
v -0.3 0.7 -0.3
v -0.3 0.8 -0.3
v -0.2 0.7 -0.3
v -0.2 0.8 -0.3
v -0.2 0.7 -0.4
v -0.2 0.8 -0.4
v -0.1 0.7 -0.4
v 0 0.7 -0.4
v 0 0.8 -0.4
v -0.2 0.4 0.3
v -0.2 0.5 0.3
v -0.1 0.4 0.3
v -0.1 0.5 0.3
v -0.2 0.5 0.2
v -0.2 0.6 0.2
v -0.2 0.7 0.2
v -0.2 0.8 0.2
v -0.1 0.5 0.2
v -0.1 0.6 0.2
v -0.1 0.7 0.2
v 0 0.7 0.2
v 0 0.8 0.2
v -0.3 0.7 0.1
v -0.3 0.8 0.1
v -0.2 0.7 0.1
v -0.2 0.8 0.1
v -0.2 0 0
v -0.2 0.1 0
v -0.2 0.3 0
v -0.1 0 0
v -0.1 0.1 0
v -0.1 0.3 0
v -0.2 0.4 -0.1
v -0.2 0.5 -0.1
v -0.1 0.4 -0.1
v -0.1 0.5 -0.1
v -0.2 0.7 -0.2
v -0.2 0.8 -0.2
v -0.1 0.7 -0.2
v -0.1 0.8 -0.2
v 0.1 1 -0.2
v 0.1 1.2 -0.2
v 0.2 0.7 -0.2
v 0.2 1 -0.2
v 0.2 1.1 -0.2
v 0.2 1.2 -0.2
v 0.3 0.6 -0.2
v 0.3 0.7 -0.2
v 0.4 0.6 -0.2
v 0.4 1 -0.2
v 0.4 1.1 -0.2
v 0.4 1.2 -0.2
v -0.3 0.3 -0.3
v -0.3 0.4 -0.3
v -0.3 0.6 -0.3
v -0.3 1.2 -0.3
v -0.3 1.3 -0.3
v -0.2 0 -0.3
v -0.2 0.1 -0.3
v -0.2 0.3 -0.3
v -0.2 0.4 -0.3
v -0.2 0.6 -0.3
v -0.1 0 -0.3
v -0.1 0.1 -0.3
v -0.1 0.3 -0.3
v -0.1 0.4 -0.3
v -0.1 0.7 -0.3
v 0 0.3 -0.3
v 0 0.4 -0.3
v 0 0.7 -0.3
v 0 1.2 -0.3
v 0 1.3 -0.3
v 0.2 1 -0.3
v 0.2 1.1 -0.3
v 0.4 1 -0.3
v 0.4 1.1 -0.3
v -0.4 1.1 -0.4
v -0.4 1.2 -0.4
v -0.3 0.6 -0.4
v -0.3 0.7 -0.4
v -0.3 0.9 -0.4
v -0.3 1.1 -0.4
v -0.2 0.3 -0.4
v -0.2 0.4 -0.4
v -0.2 0.6 -0.4
v -0.2 0.7 -0.4
v -0.1 0.3 -0.4
v -0.1 0.4 -0.4
v -0.1 0.7 -0.4
v 0.1 0.9 -0.4
v 0.1 1.2 -0.4
v -0.3 0.7 -0.5
v -0.3 0.9 -0.5
v 0.1 0.7 -0.5
v 0.1 0.9 -0.5
v -0.2 0 0.1
v -0.1 0 0.1
v -0.2 0 0
v -0.1 0 0
v -0.2 0 -0.2
v -0.1 0 -0.2
v -0.2 0 -0.3
v -0.1 0 -0.3
v -0.3 0.3 0.1
v -0.2 0.3 0.1
v -0.1 0.3 0.1
v 0 0.3 0.1
v -0.2 0.3 0
v -0.1 0.3 0
v -0.2 0.3 -0.2
v -0.1 0.3 -0.2
v -0.3 0.3 -0.3
v -0.2 0.3 -0.3
v -0.1 0.3 -0.3
v 0 0.3 -0.3
v -0.2 0.3 -0.4
v -0.1 0.3 -0.4
v -0.2 0.4 0.4
v -0.1 0.4 0.4
v -0.2 0.4 0.3
v -0.1 0.4 0.3
v -0.2 0.5 0.3
v -0.1 0.5 0.3
v -0.2 0.5 0.2
v -0.1 0.5 0.2
v -0.2 0.5 -0.1
v -0.1 0.5 -0.1
v -0.2 0.5 -0.2
v -0.1 0.5 -0.2
v -0.3 0.6 0.2
v -0.2 0.6 0.2
v -0.1 0.6 0.2
v -0.3 0.6 0.1
v -0.2 0.6 0.1
v -0.1 0.6 0.1
v 0.3 0.6 0
v 0.4 0.6 0
v 0.3 0.6 -0.2
v 0.4 0.6 -0.2
v -0.3 0.6 -0.3
v -0.2 0.6 -0.3
v -0.3 0.6 -0.4
v -0.2 0.6 -0.4
v -0.3 0.7 0.3
v 0.1 0.7 0.3
v -0.3 0.7 0.2
v -0.2 0.7 0.2
v -0.1 0.7 0.2
v 0 0.7 0.2
v 0 0.7 0.1
v 0.2 0.7 0
v 0.3 0.7 0
v 0.2 0.7 -0.2
v 0.3 0.7 -0.2
v 0 0.7 -0.3
v -0.3 0.7 -0.4
v -0.2 0.7 -0.4
v -0.1 0.7 -0.4
v 0 0.7 -0.4
v -0.3 0.7 -0.5
v 0.1 0.7 -0.5
v -0.2 0.8 0.2
v 0 0.8 0.2
v -0.3 0.8 0.1
v -0.2 0.8 0.1
v 0 0.8 0.1
v -0.2 0.8 0
v -0.1 0.8 0
v -0.2 0.8 -0.2
v -0.1 0.8 -0.2
v -0.3 0.8 -0.3
v -0.2 0.8 -0.3
v 0 0.8 -0.3
v -0.2 0.8 -0.4
v 0 0.8 -0.4
v 0.2 1 0.1
v 0.4 1 0.1
v 0.1 1 0
v 0.2 1 0
v 0.4 1 0
v 0.1 1 -0.2
v 0.2 1 -0.2
v 0.4 1 -0.2
v 0.2 1 -0.3
v 0.4 1 -0.3
v -0.4 1.1 0.2
v -0.3 1.1 0.2
v -0.3 1.1 0.1
v -0.3 1.1 0
v -0.3 1.1 -0.2
v -0.3 1.1 -0.3
v -0.4 1.1 -0.4
v -0.3 1.1 -0.4
v -0.2 0.4 -0.1
v -0.1 0.4 -0.1
v -0.2 0.4 -0.2
v -0.1 0.4 -0.2
v -0.2 0.5 0.4
v -0.1 0.5 0.4
v -0.2 0.5 0.3
v -0.1 0.5 0.3
v -0.2 0.6 0.3
v -0.1 0.6 0.3
v -0.2 0.6 0.2
v -0.1 0.6 0.2
v -0.2 0.7 0.2
v -0.1 0.7 0.2
v -0.3 0.7 0.1
v -0.2 0.7 0.1
v -0.1 0.7 0.1
v 0 0.7 0.1
v -0.3 0.7 0
v -0.2 0.7 0
v -0.1 0.7 0
v -0.3 0.7 -0.2
v -0.2 0.7 -0.2
v -0.1 0.7 -0.2
v -0.3 0.7 -0.3
v -0.2 0.7 -0.3
v -0.1 0.7 -0.3
v 0 0.7 -0.3
v -0.2 0.7 -0.4
v -0.1 0.7 -0.4
v -0.3 0.9 0.3
v 0.1 0.9 0.3
v -0.3 0.9 0.2
v 0.1 0.9 0.2
v -0.3 0.9 -0.4
v 0.1 0.9 -0.4
v -0.3 0.9 -0.5
v 0.1 0.9 -0.5
v 0.2 1.1 0.1
v 0.4 1.1 0.1
v 0.2 1.1 0
v 0.4 1.1 0
v 0.2 1.1 -0.2
v 0.4 1.1 -0.2
v 0.2 1.1 -0.3
v 0.4 1.1 -0.3
v -0.4 1.2 0.2
v 0.1 1.2 0.2
v -0.3 1.2 0.1
v 0 1.2 0.1
v 0.1 1.2 0
v 0.2 1.2 0
v 0.4 1.2 0
v 0.1 1.2 -0.2
v 0.2 1.2 -0.2
v 0.4 1.2 -0.2
v -0.3 1.2 -0.3
v 0 1.2 -0.3
v -0.4 1.2 -0.4
v 0.1 1.2 -0.4
v -0.3 1.3 0.1
v 0 1.3 0.1
v -0.3 1.3 -0.3
v 0 1.3 -0.3

# faces
f 3/4/1 2/4/1 1/4/1
f 4/4/1 2/4/1 3/4/1
f 7/1/1 6/1/1 5/1/1
f 8/1/1 6/1/1 7/1/1
f 9/6/1 8/6/1 7/6/1
f 10/6/1 8/6/1 9/6/1
f 12/6/1 9/6/1 7/6/1
f 13/6/1 8/6/1 10/6/1
f 16/4/1 12/4/1 11/4/1
f 17/6/1 9/6/1 12/6/1
f 17/4/1 12/4/1 16/4/1
f 18/7/1 10/7/1 9/7/1
f 18/6/1 9/6/1 17/6/1
f 19/6/1 13/6/1 10/6/1
f 19/7/1 10/7/1 18/7/1
f 20/4/1 14/4/1 13/4/1
f 20/6/1 13/6/1 19/6/1
f 21/4/1 14/4/1 20/4/1
f 23/4/1 17/4/1 16/4/1
f 23/4/1 16/4/1 15/4/1
f 24/4/1 22/4/1 21/4/1
f 24/4/1 21/4/1 20/4/1
f 25/4/1 23/4/1 15/4/1
f 26/4/1 23/4/1 25/4/1
f 27/2/1 24/2/1 23/2/1
f 27/4/1 23/4/1 26/4/1
f 28/2/1 24/2/1 27/2/1
f 29/2/1 24/2/1 28/2/1
f 30/4/1 22/4/1 24/4/1
f 30/2/1 24/2/1 29/2/1
f 31/4/1 22/4/1 30/4/1
f 32/4/1 22/4/1 31/4/1
f 33/4/1 27/4/1 26/4/1
f 34/3/1 28/3/1 27/3/1
f 34/4/1 27/4/1 33/4/1
f 35/2/1 29/2/1 28/2/1
f 35/3/1 28/3/1 34/3/1
f 36/3/1 30/3/1 29/3/1
f 36/2/1 29/2/1 35/2/1
f 37/4/1 31/4/1 30/4/1
f 37/3/1 30/3/1 36/3/1
f 38/4/1 31/4/1 37/4/1
f 41/4/1 40/4/1 39/4/1
f 42/4/1 40/4/1 41/4/1
f 47/8/1 44/8/1 43/8/1
f 48/8/1 44/8/1 47/8/1
f 49/8/1 46/8/1 45/8/1
f 50/8/1 46/8/1 49/8/1
f 51/1/1 48/1/1 47/1/1
f 52/1/1 48/1/1 51/1/1
f 53/1/1 50/1/1 49/1/1
f 54/1/1 50/1/1 53/1/1
f 58/2/1 55/2/1 54/2/1
f 59/2/1 55/2/1 58/2/1
f 60/2/1 57/2/1 56/2/1
f 61/2/1 57/2/1 60/2/1
f 63/6/1 62/6/1 61/6/1
f 64/6/1 62/6/1 63/6/1
f 65/6/1 59/6/1 58/6/1
f 66/6/1 59/6/1 65/6/1
f 69/2/1 68/2/1 67/2/1
f 70/2/1 68/2/1 69/2/1
f 73/6/1 72/6/1 71/6/1
f 74/6/1 72/6/1 73/6/1
f 79/4/1 76/4/1 75/4/1
f 79/4/1 78/4/1 77/4/1
f 79/4/1 77/4/1 76/4/1
f 80/4/1 78/4/1 79/4/1
f 81/4/1 78/4/1 80/4/1
f 82/4/1 78/4/1 81/4/1
f 86/4/1 84/4/1 83/4/1
f 87/4/1 84/4/1 86/4/1
f 89/4/1 86/4/1 85/4/1
f 90/4/1 86/4/1 89/4/1
f 91/4/1 88/4/1 87/4/1
f 92/4/1 88/4/1 91/4/1
f 95/4/1 94/4/1 93/4/1
f 96/4/1 94/4/1 95/4/1
f 97/6/2 98/6/2 99/6/2
f 99/6/2 98/6/2 100/6/2
f 101/4/2 102/4/2 105/4/2
f 105/4/2 102/4/2 106/4/2
f 103/4/2 104/4/2 107/4/2
f 107/4/2 104/4/2 108/4/2
f 109/8/2 110/8/2 113/8/2
f 113/8/2 110/8/2 114/8/2
f 111/8/2 112/8/2 115/8/2
f 115/8/2 112/8/2 116/8/2
f 113/1/2 114/1/2 117/1/2
f 117/1/2 114/1/2 118/1/2
f 115/1/2 116/1/2 119/1/2
f 119/1/2 116/1/2 120/1/2
f 120/2/2 121/2/2 124/2/2
f 124/2/2 121/2/2 125/2/2
f 122/2/2 123/2/2 126/2/2
f 126/2/2 123/2/2 127/2/2
f 127/6/2 128/6/2 129/6/2
f 129/6/2 128/6/2 130/6/2
f 130/6/2 131/6/2 132/6/2
f 132/6/2 131/6/2 133/6/2
f 124/6/2 125/6/2 136/6/2
f 136/6/2 125/6/2 137/6/2
f 134/2/2 135/2/2 138/2/2
f 138/2/2 135/2/2 139/2/2
f 140/1/2 141/1/2 142/1/2
f 142/1/2 141/1/2 143/1/2
f 142/6/2 143/6/2 144/6/2
f 144/6/2 143/6/2 145/6/2
f 146/4/2 147/4/2 148/4/2
f 148/4/2 147/4/2 149/4/2
f 150/4/2 151/4/2 152/4/2
f 152/4/2 151/4/2 153/4/2
f 153/4/2 151/4/2 154/4/2
f 154/4/2 151/4/2 155/4/2
f 153/4/2 154/4/2 156/4/2
f 156/4/2 154/4/2 157/4/2
f 153/4/2 156/4/2 158/4/2
f 158/4/2 156/4/2 159/4/2
f 157/4/2 154/4/2 160/4/2
f 160/4/2 154/4/2 161/4/2
f 162/4/2 163/4/2 165/4/2
f 165/4/2 163/4/2 166/4/2
f 164/4/2 165/4/2 168/4/2
f 166/4/2 167/4/2 168/4/2
f 165/4/2 166/4/2 168/4/2
f 168/4/2 167/4/2 169/4/2
f 169/4/2 167/4/2 170/4/2
f 170/4/2 167/4/2 171/4/2
f 169/4/2 170/4/2 172/4/2
f 172/4/2 170/4/2 173/4/2
f 176/2/3 175/2/3 174/2/3
f 177/2/3 175/2/3 176/2/3
f 182/6/3 181/6/3 180/6/3
f 183/6/3 181/6/3 182/6/3
f 184/4/3 179/4/3 178/4/3
f 185/4/3 179/4/3 184/4/3
f 191/4/3 187/4/3 186/4/3
f 192/4/3 189/4/3 188/4/3
f 193/4/3 189/4/3 192/4/3
f 194/6/3 193/6/3 192/6/3
f 195/6/3 193/6/3 194/6/3
f 196/4/3 191/4/3 190/4/3
f 197/4/3 187/4/3 191/4/3
f 197/4/3 191/4/3 196/4/3
f 205/1/3 199/1/3 198/1/3
f 206/6/3 200/6/3 199/6/3
f 207/8/3 204/8/3 203/8/3
f 208/1/3 205/1/3 204/1/3
f 208/8/3 204/8/3 207/8/3
f 209/1/3 199/1/3 205/1/3
f 209/1/3 205/1/3 208/1/3
f 210/6/3 206/6/3 199/6/3
f 212/1/3 199/1/3 209/1/3
f 213/6/3 210/6/3 199/6/3
f 213/1/3 199/1/3 212/1/3
f 213/6/3 211/6/3 210/6/3
f 214/6/3 211/6/3 213/6/3
f 215/4/3 202/4/3 201/4/3
f 216/4/3 202/4/3 215/4/3
f 219/4/3 218/4/3 217/4/3
f 220/4/3 218/4/3 219/4/3
f 223/2/3 222/2/3 221/2/3
f 224/2/3 222/2/3 223/2/3
f 228/1/3 226/1/3 225/1/3
f 229/1/3 226/1/3 228/1/3
f 230/1/3 226/1/3 229/1/3
f 232/4/3 228/4/3 227/4/3
f 233/4/3 232/4/3 231/4/3
f 234/4/3 228/4/3 232/4/3
f 234/4/3 232/4/3 233/4/3
f 235/4/3 230/4/3 229/4/3
f 236/4/3 230/4/3 235/4/3
f 242/8/3 238/8/3 237/8/3
f 243/1/3 239/1/3 238/1/3
f 243/8/3 238/8/3 242/8/3
f 244/1/3 239/1/3 243/1/3
f 245/6/3 241/6/3 240/6/3
f 246/6/3 241/6/3 245/6/3
f 249/4/3 248/4/3 247/4/3
f 250/4/3 248/4/3 249/4/3
f 253/4/3 252/4/3 251/4/3
f 254/4/3 252/4/3 253/4/3
f 255/4/3 252/4/3 254/4/3
f 256/2/4 257/2/4 258/2/4
f 258/2/4 257/2/4 259/2/4
f 260/6/4 261/6/4 264/6/4
f 264/6/4 261/6/4 265/6/4
f 262/4/4 263/4/4 266/4/4
f 266/4/4 263/4/4 267/4/4
f 267/4/4 263/4/4 268/4/4
f 269/4/4 270/4/4 271/4/4
f 271/4/4 270/4/4 272/4/4
f 273/8/4 274/8/4 276/8/4
f 274/1/4 275/1/4 277/1/4
f 276/8/4 274/8/4 277/8/4
f 277/1/4 275/1/4 278/1/4
f 279/5/4 280/5/4 281/5/4
f 281/5/4 280/5/4 282/5/4
f 283/2/4 284/2/4 285/2/4
f 285/2/4 284/2/4 286/2/4
f 287/1/4 288/1/4 290/1/4
f 290/1/4 288/1/4 291/1/4
f 291/1/4 288/1/4 292/1/4
f 289/4/4 290/4/4 294/4/4
f 293/4/4 294/4/4 295/4/4
f 294/4/4 290/4/4 296/4/4
f 295/4/4 294/4/4 296/4/4
f 291/4/4 292/4/4 297/4/4
f 297/4/4 292/4/4 298/4/4
f 299/1/4 300/1/4 306/1/4
f 300/6/4 301/6/4 307/6/4
f 306/1/4 300/1/4 307/1/4
f 307/6/4 301/6/4 308/6/4
f 304/8/4 305/8/4 309/8/4
f 305/1/4 306/1/4 310/1/4
f 309/8/4 305/8/4 310/8/4
f 310/1/4 306/1/4 311/1/4
f 311/1/4 312/1/4 314/1/4
f 312/6/4 313/6/4 315/6/4
f 314/1/4 312/1/4 315/1/4
f 315/6/4 313/6/4 316/6/4
f 302/4/4 303/4/4 317/4/4
f 317/4/4 303/4/4 318/4/4
f 319/4/4 320/4/4 321/4/4
f 321/4/4 320/4/4 322/4/4
f 323/4/4 324/4/4 328/4/4
f 325/4/4 326/4/4 331/4/4
f 331/4/4 326/4/4 332/4/4
f 329/2/4 330/2/4 333/2/4
f 330/6/4 331/6/4 334/6/4
f 333/2/4 330/2/4 334/2/4
f 331/6/4 332/6/4 334/6/4
f 334/6/4 332/6/4 335/6/4
f 327/4/4 328/4/4 336/4/4
f 328/4/4 324/4/4 337/4/4
f 336/4/4 328/4/4 337/4/4
f 338/4/4 339/4/4 340/4/4
f 340/4/4 339/4/4 341/4/4
f 344/8/5 343/8/5 342/8/5
f 345/8/5 343/8/5 344/8/5
f 348/8/5 347/8/5 346/8/5
f 349/8/5 347/8/5 348/8/5
f 354/1/5 351/1/5 350/1/5
f 355/1/5 353/1/5 352/1/5
f 356/1/5 354/1/5 350/1/5
f 356/5/5 355/5/5 354/5/5
f 357/1/5 353/1/5 355/1/5
f 357/5/5 355/5/5 356/5/5
f 358/1/5 356/1/5 350/1/5
f 359/1/5 356/1/5 358/1/5
f 360/1/5 353/1/5 357/1/5
f 361/1/5 353/1/5 360/1/5
f 362/2/5 360/2/5 359/2/5
f 363/2/5 360/2/5 362/2/5
f 366/2/5 365/2/5 364/2/5
f 367/2/5 365/2/5 366/2/5
f 370/6/5 369/6/5 368/6/5
f 371/6/5 369/6/5 370/6/5
f 374/5/5 373/5/5 372/5/5
f 375/5/5 373/5/5 374/5/5
f 379/4/5 377/4/5 376/4/5
f 380/6/5 378/6/5 377/6/5
f 380/4/5 377/4/5 379/4/5
f 381/6/5 378/6/5 380/6/5
f 384/4/5 383/4/5 382/4/5
f 385/4/5 383/4/5 384/4/5
f 388/4/5 387/4/5 386/4/5
f 389/4/5 387/4/5 388/4/5
f 392/4/5 391/4/5 390/4/5
f 393/4/5 391/4/5 392/4/5
f 394/4/5 391/4/5 393/4/5
f 395/4/5 391/4/5 394/4/5
f 396/4/5 391/4/5 395/4/5
f 399/4/5 398/4/5 397/4/5
f 400/4/5 398/4/5 399/4/5
f 401/4/5 391/4/5 396/4/5
f 405/4/5 391/4/5 401/4/5
f 406/4/5 404/4/5 403/4/5
f 406/4/5 405/4/5 404/4/5
f 406/4/5 403/4/5 402/4/5
f 407/4/5 391/4/5 405/4/5
f 407/4/5 405/4/5 406/4/5
f 411/4/5 409/4/5 408/4/5
f 412/4/5 409/4/5 411/4/5
f 413/2/5 411/2/5 410/2/5
f 413/2/5 412/2/5 411/2/5
f 414/2/5 412/2/5 413/2/5
f 415/2/5 413/2/5 410/2/5
f 416/2/5 412/2/5 414/2/5
f 417/2/5 415/2/5 410/2/5
f 417/2/5 416/2/5 415/2/5
f 418/2/5 416/2/5 417/2/5
f 419/2/5 412/2/5 416/2/5
f 419/2/5 416/2/5 418/2/5
f 420/4/5 419/4/5 418/4/5
f 421/4/5 419/4/5 420/4/5
f 425/4/5 423/4/5 422/4/5
f 426/4/5 423/4/5 425/4/5
f 427/1/5 425/1/5 424/1/5
f 428/1/5 425/1/5 427/1/5
f 430/4/5 429/4/5 428/4/5
f 431/4/5 429/4/5 430/4/5
f 434/4/5 433/4/5 432/4/5
f 435/4/5 434/4/5 432/4/5
f 436/4/5 435/4/5 432/4/5
f 437/4/5 436/4/5 432/4/5
f 438/4/5 437/4/5 432/4/5
f 439/4/5 437/4/5 438/4/5
f 440/5/6 441/5/6 442/5/6
f 442/5/6 441/5/6 443/5/6
f 444/2/6 445/2/6 446/2/6
f 446/2/6 445/2/6 447/2/6
f 448/6/6 449/6/6 450/6/6
f 450/6/6 449/6/6 451/6/6
f 452/6/6 453/6/6 455/6/6
f 455/6/6 453/6/6 456/6/6
f 454/6/6 455/6/6 458/6/6
f 456/6/6 457/6/6 458/6/6
f 455/6/6 456/6/6 458/6/6
f 458/6/6 457/6/6 459/6/6
f 459/6/6 457/6/6 460/6/6
f 458/7/6 459/7/6 461/7/6
f 461/7/6 459/7/6 462/7/6
f 460/6/6 457/6/6 463/6/6
f 461/6/6 462/6/6 464/6/6
f 462/6/6 463/6/6 464/6/6
f 464/6/6 463/6/6 465/6/6
f 463/6/6 457/6/6 466/6/6
f 465/6/6 463/6/6 466/6/6
f 466/6/6 457/6/6 467/6/6
f 465/6/6 466/6/6 468/6/6
f 468/6/6 466/6/6 469/6/6
f 470/4/6 471/4/6 472/4/6
f 472/4/6 471/4/6 473/4/6
f 474/4/6 475/4/6 476/4/6
f 476/4/6 475/4/6 477/4/6
f 478/4/6 479/4/6 480/4/6
f 480/4/6 479/4/6 481/4/6
f 482/4/6 483/4/6 484/4/6
f 484/4/6 483/4/6 485/4/6
f 486/4/6 487/4/6 488/4/6
f 488/4/6 487/4/6 489/4/6
f 489/4/6 487/4/6 490/4/6
f 489/4/6 490/4/6 493/4/6
f 490/1/6 491/1/6 493/1/6
f 491/4/6 492/4/6 494/4/6
f 493/1/6 491/1/6 494/1/6
f 494/4/6 492/4/6 495/4/6
f 486/4/6 488/4/6 496/4/6
f 489/4/6 493/4/6 497/4/6
f 486/4/6 496/4/6 498/4/6
f 496/4/6 497/4/6 498/4/6
f 497/4/6 493/4/6 499/4/6
f 498/4/6 497/4/6 499/4/6
f 500/4/6 501/4/6 502/4/6
f 502/4/6 501/4/6 503/4/6
