# MagicaVoxel @ Ephtracy

# group
o 

# material
mtllib 5.mtl
usemtl palette

# normals
vn -1 0 0
vn 1 0 0
vn 0 0 1
vn 0 0 -1
vn 0 -1 0
vn 0 1 0

# texcoords
vt 0.00195313 0.5
vt 0.00585938 0.5
vt 0.00976563 0.5
vt 0.0253906 0.5
vt 0.0410156 0.5

# verts
v -0.5 0.1 0
v -0.5 0.1 -0.1
v -0.5 0.2 0
v -0.5 0.2 -0.1
v -0.4 0 0.2
v -0.4 0 0.1
v -0.4 0 -0.2
v -0.4 0 -0.3
v -0.4 0.1 0.2
v -0.4 0.1 0.1
v -0.4 0.1 -0.2
v -0.4 0.1 -0.3
v -0.4 0.2 0.2
v -0.4 0.2 0.1
v -0.4 0.2 -0.2
v -0.4 0.2 -0.3
v -0.3 0.1 0.1
v -0.3 0.1 0
v -0.3 0.1 -0.1
v -0.3 0.1 -0.2
v -0.3 0.2 0.2
v -0.3 0.2 0.1
v -0.3 0.2 0
v -0.3 0.2 -0.1
v -0.3 0.2 -0.2
v -0.3 0.2 -0.3
v -0.3 0.3 0.2
v -0.3 0.3 0.1
v -0.3 0.3 -0.2
v -0.3 0.3 -0.3
v -0.3 0.4 0.1
v -0.3 0.4 -0.2
v -0.2 0.3 0.2
v -0.2 0.3 0.1
v -0.2 0.3 -0.2
v -0.2 0.3 -0.3
v -0.2 0.4 0.2
v -0.2 0.4 0.1
v -0.2 0.4 -0.2
v -0.2 0.4 -0.3
v -0.2 0.5 0.1
v -0.2 0.5 -0.2
v 0.1 0.2 0.1
v 0.1 0.2 -0.2
v 0.1 0.3 0.1
v 0.1 0.3 -0.2
v 0.2 0 0.2
v 0.2 0 0.1
v 0.2 0 -0.2
v 0.2 0 -0.3
v 0.2 0.1 0.2
v 0.2 0.1 0.1
v 0.2 0.1 -0.2
v 0.2 0.1 -0.3
v 0.3 0.2 0
v 0.3 0.2 -0.1
v 0.3 0.3 0
v 0.3 0.3 -0.1
v -0.3 0 0.2
v -0.3 0 0.1
v -0.3 0 -0.2
v -0.3 0 -0.3
v -0.3 0.1 0.2
v -0.3 0.1 0.1
v -0.3 0.1 -0.2
v -0.3 0.1 -0.3
v -0.2 0.2 0.1
v -0.2 0.2 -0.2
v -0.2 0.3 0.1
v -0.2 0.3 -0.2
v 0.1 0.3 0.2
v 0.1 0.3 0.1
v 0.1 0.3 -0.2
v 0.1 0.3 -0.3
v 0.1 0.4 0.2
v 0.1 0.4 0.1
v 0.1 0.4 -0.2
v 0.1 0.4 -0.3
v 0.1 0.5 0.1
v 0.1 0.5 -0.2
v 0.2 0.1 0.1
v 0.2 0.1 0
v 0.2 0.1 -0.1
v 0.2 0.1 -0.2
v 0.2 0.2 0.2
v 0.2 0.2 0.1
v 0.2 0.2 0
v 0.2 0.2 -0.1
v 0.2 0.2 -0.2
v 0.2 0.2 -0.3
v 0.2 0.3 0.2
v 0.2 0.3 0.1
v 0.2 0.3 -0.2
v 0.2 0.3 -0.3
v 0.2 0.4 0.1
v 0.2 0.4 -0.2
v 0.3 0 0.2
v 0.3 0 0.1
v 0.3 0 -0.2
v 0.3 0 -0.3
v 0.3 0.1 0.2
v 0.3 0.1 0.1
v 0.3 0.1 -0.2
v 0.3 0.1 -0.3
v 0.3 0.2 0.2
v 0.3 0.2 0.1
v 0.3 0.2 -0.2
v 0.3 0.2 -0.3
v 0.4 0.1 0
v 0.4 0.1 -0.1
v 0.4 0.2 0
v 0.4 0.2 -0.1
v 0.5 0.2 0
v 0.5 0.2 -0.1
v 0.5 0.3 0
v 0.5 0.3 -0.1
v -0.4 0 0.2
v -0.4 0.1 0.2
v -0.4 0.2 0.2
v -0.3 0 0.2
v -0.3 0.1 0.2
v -0.3 0.2 0.2
v -0.3 0.3 0.2
v -0.2 0.1 0.2
v -0.2 0.2 0.2
v -0.2 0.3 0.2
v -0.2 0.4 0.2
v 0.1 0.1 0.2
v 0.1 0.2 0.2
v 0.1 0.3 0.2
v 0.1 0.4 0.2
v 0.2 0 0.2
v 0.2 0.1 0.2
v 0.2 0.2 0.2
v 0.2 0.3 0.2
v 0.3 0 0.2
v 0.3 0.1 0.2
v 0.3 0.2 0.2
v -0.3 0.3 0.1
v -0.3 0.4 0.1
v -0.2 0.3 0.1
v -0.2 0.4 0.1
v -0.2 0.5 0.1
v 0.1 0.3 0.1
v 0.1 0.4 0.1
v 0.1 0.5 0.1
v 0.2 0.3 0.1
v 0.2 0.4 0.1
v -0.5 0.1 0
v -0.5 0.2 0
v -0.3 0.1 0
v -0.3 0.2 0
v 0.2 0.1 0
v 0.2 0.2 0
v 0.3 0.2 0
v 0.3 0.3 0
v 0.4 0.1 0
v 0.4 0.2 0
v 0.4 0.3 0
v 0.5 0.2 0
v 0.5 0.3 0
v -0.4 0 -0.2
v -0.4 0.1 -0.2
v -0.4 0.2 -0.2
v -0.3 0 -0.2
v -0.3 0.1 -0.2
v -0.3 0.2 -0.2
v -0.2 0.2 -0.2
v -0.2 0.3 -0.2
v 0.1 0.2 -0.2
v 0.1 0.3 -0.2
v 0.2 0 -0.2
v 0.2 0.1 -0.2
v 0.2 0.2 -0.2
v 0.3 0 -0.2
v 0.3 0.1 -0.2
v 0.3 0.2 -0.2
v -0.4 0 0.1
v -0.4 0.1 0.1
v -0.4 0.2 0.1
v -0.3 0 0.1
v -0.3 0.1 0.1
v -0.3 0.2 0.1
v -0.2 0.2 0.1
v -0.2 0.3 0.1
v 0.1 0.2 0.1
v 0.1 0.3 0.1
v 0.2 0 0.1
v 0.2 0.1 0.1
v 0.2 0.2 0.1
v 0.3 0 0.1
v 0.3 0.1 0.1
v 0.3 0.2 0.1
v -0.5 0.1 -0.1
v -0.5 0.2 -0.1
v -0.3 0.1 -0.1
v -0.3 0.2 -0.1
v 0.2 0.1 -0.1
v 0.2 0.2 -0.1
v 0.3 0.2 -0.1
v 0.3 0.3 -0.1
v 0.4 0.1 -0.1
v 0.4 0.2 -0.1
v 0.4 0.3 -0.1
v 0.5 0.2 -0.1
v 0.5 0.3 -0.1
v -0.3 0.3 -0.2
v -0.3 0.4 -0.2
v -0.2 0.3 -0.2
v -0.2 0.4 -0.2
v -0.2 0.5 -0.2
v 0.1 0.3 -0.2
v 0.1 0.4 -0.2
v 0.1 0.5 -0.2
v 0.2 0.3 -0.2
v 0.2 0.4 -0.2
v -0.4 0 -0.3
v -0.4 0.1 -0.3
v -0.4 0.2 -0.3
v -0.3 0 -0.3
v -0.3 0.1 -0.3
v -0.3 0.2 -0.3
v -0.3 0.3 -0.3
v -0.2 0.1 -0.3
v -0.2 0.2 -0.3
v -0.2 0.3 -0.3
v -0.2 0.4 -0.3
v 0.1 0.1 -0.3
v 0.1 0.2 -0.3
v 0.1 0.3 -0.3
v 0.1 0.4 -0.3
v 0.2 0 -0.3
v 0.2 0.1 -0.3
v 0.2 0.2 -0.3
v 0.2 0.3 -0.3
v 0.3 0 -0.3
v 0.3 0.1 -0.3
v 0.3 0.2 -0.3
v -0.4 0 0.2
v -0.3 0 0.2
v 0.2 0 0.2
v 0.3 0 0.2
v -0.4 0 0.1
v -0.3 0 0.1
v 0.2 0 0.1
v 0.3 0 0.1
v -0.4 0 -0.2
v -0.3 0 -0.2
v 0.2 0 -0.2
v 0.3 0 -0.2
v -0.4 0 -0.3
v -0.3 0 -0.3
v 0.2 0 -0.3
v 0.3 0 -0.3
v -0.3 0.1 0.2
v -0.2 0.1 0.2
v 0.1 0.1 0.2
v 0.2 0.1 0.2
v -0.3 0.1 0.1
v -0.2 0.1 0.1
v 0.1 0.1 0.1
v 0.2 0.1 0.1
v -0.5 0.1 0
v -0.3 0.1 0
v 0.2 0.1 0
v 0.4 0.1 0
v -0.5 0.1 -0.1
v -0.3 0.1 -0.1
v 0.2 0.1 -0.1
v 0.4 0.1 -0.1
v -0.3 0.1 -0.2
v -0.2 0.1 -0.2
v 0.1 0.1 -0.2
v 0.2 0.1 -0.2
v -0.3 0.1 -0.3
v -0.2 0.1 -0.3
v 0.1 0.1 -0.3
v 0.2 0.1 -0.3
v 0.4 0.2 0
v 0.5 0.2 0
v 0.4 0.2 -0.1
v 0.5 0.2 -0.1
v -0.2 0.3 0.1
v 0.1 0.3 0.1
v -0.2 0.3 -0.2
v 0.1 0.3 -0.2
v -0.4 0.2 0.2
v -0.3 0.2 0.2
v 0.2 0.2 0.2
v 0.3 0.2 0.2
v -0.4 0.2 0.1
v -0.3 0.2 0.1
v -0.2 0.2 0.1
v 0.1 0.2 0.1
v 0.2 0.2 0.1
v 0.3 0.2 0.1
v -0.5 0.2 0
v -0.3 0.2 0
v 0.2 0.2 0
v 0.3 0.2 0
v -0.5 0.2 -0.1
v -0.3 0.2 -0.1
v 0.2 0.2 -0.1
v 0.3 0.2 -0.1
v -0.4 0.2 -0.2
v -0.3 0.2 -0.2
v -0.2 0.2 -0.2
v 0.1 0.2 -0.2
v 0.2 0.2 -0.2
v 0.3 0.2 -0.2
v -0.4 0.2 -0.3
v -0.3 0.2 -0.3
v 0.2 0.2 -0.3
v 0.3 0.2 -0.3
v -0.3 0.3 0.2
v -0.2 0.3 0.2
v 0.1 0.3 0.2
v 0.2 0.3 0.2
v -0.3 0.3 0.1
v -0.2 0.3 0.1
v 0.1 0.3 0.1
v 0.2 0.3 0.1
v 0.3 0.3 0
v 0.4 0.3 0
v 0.5 0.3 0
v 0.3 0.3 -0.1
v 0.4 0.3 -0.1
v 0.5 0.3 -0.1
v -0.3 0.3 -0.2
v -0.2 0.3 -0.2
v 0.1 0.3 -0.2
v 0.2 0.3 -0.2
v -0.3 0.3 -0.3
v -0.2 0.3 -0.3
v 0.1 0.3 -0.3
v 0.2 0.3 -0.3
v -0.2 0.4 0.2
v 0.1 0.4 0.2
v -0.3 0.4 0.1
v -0.2 0.4 0.1
v 0.1 0.4 0.1
v 0.2 0.4 0.1
v -0.3 0.4 -0.2
v -0.2 0.4 -0.2
v 0.1 0.4 -0.2
v 0.2 0.4 -0.2
v -0.2 0.4 -0.3
v 0.1 0.4 -0.3
v -0.2 0.5 0.1
v 0.1 0.5 0.1
v -0.2 0.5 -0.2
v 0.1 0.5 -0.2

# faces
f 3/5/1 2/5/1 1/5/1
f 4/5/1 2/5/1 3/5/1
f 9/2/1 6/2/1 5/2/1
f 10/2/1 6/2/1 9/2/1
f 11/2/1 8/2/1 7/2/1
f 12/2/1 8/2/1 11/2/1
f 13/5/1 10/5/1 9/5/1
f 14/5/1 10/5/1 13/5/1
f 15/5/1 12/5/1 11/5/1
f 16/5/1 12/5/1 15/5/1
f 22/3/1 18/3/1 17/3/1
f 23/3/1 18/3/1 22/3/1
f 24/3/1 20/3/1 19/3/1
f 25/3/1 20/3/1 24/3/1
f 27/1/1 23/1/1 22/1/1
f 27/1/1 26/1/1 25/1/1
f 27/1/1 25/1/1 24/1/1
f 27/1/1 24/1/1 23/1/1
f 27/1/1 22/1/1 21/1/1
f 28/1/1 26/1/1 27/1/1
f 29/1/1 26/1/1 28/1/1
f 30/1/1 26/1/1 29/1/1
f 31/1/1 29/1/1 28/1/1
f 32/1/1 29/1/1 31/1/1
f 37/1/1 34/1/1 33/1/1
f 38/1/1 34/1/1 37/1/1
f 39/1/1 36/1/1 35/1/1
f 40/1/1 36/1/1 39/1/1
f 41/1/1 39/1/1 38/1/1
f 42/1/1 39/1/1 41/1/1
f 45/1/1 44/1/1 43/1/1
f 46/1/1 44/1/1 45/1/1
f 51/2/1 48/2/1 47/2/1
f 52/2/1 48/2/1 51/2/1
f 53/2/1 50/2/1 49/2/1
f 54/2/1 50/2/1 53/2/1
f 57/5/1 56/5/1 55/5/1
f 58/5/1 56/5/1 57/5/1
f 59/2/2 60/2/2 63/2/2
f 63/2/2 60/2/2 64/2/2
f 61/2/2 62/2/2 65/2/2
f 65/2/2 62/2/2 66/2/2
f 67/1/2 68/1/2 69/1/2
f 69/1/2 68/1/2 70/1/2
f 71/1/2 72/1/2 75/1/2
f 75/1/2 72/1/2 76/1/2
f 73/1/2 74/1/2 77/1/2
f 77/1/2 74/1/2 78/1/2
f 76/1/2 77/1/2 79/1/2
f 79/1/2 77/1/2 80/1/2
f 81/3/2 82/3/2 86/3/2
f 86/3/2 82/3/2 87/3/2
f 83/3/2 84/3/2 88/3/2
f 88/3/2 84/3/2 89/3/2
f 86/1/2 87/1/2 91/1/2
f 89/1/2 90/1/2 91/1/2
f 88/1/2 89/1/2 91/1/2
f 87/1/2 88/1/2 91/1/2
f 85/1/2 86/1/2 91/1/2
f 91/1/2 90/1/2 92/1/2
f 92/1/2 90/1/2 93/1/2
f 93/1/2 90/1/2 94/1/2
f 92/1/2 93/1/2 95/1/2
f 95/1/2 93/1/2 96/1/2
f 97/2/2 98/2/2 101/2/2
f 101/2/2 98/2/2 102/2/2
f 99/2/2 100/2/2 103/2/2
f 103/2/2 100/2/2 104/2/2
f 101/5/2 102/5/2 105/5/2
f 105/5/2 102/5/2 106/5/2
f 103/5/2 104/5/2 107/5/2
f 107/5/2 104/5/2 108/5/2
f 109/5/2 110/5/2 111/5/2
f 111/5/2 110/5/2 112/5/2
f 113/2/2 114/2/2 115/2/2
f 115/2/2 114/2/2 116/2/2
f 120/2/3 118/2/3 117/2/3
f 121/5/3 119/5/3 118/5/3
f 121/2/3 118/2/3 120/2/3
f 122/5/3 119/5/3 121/5/3
f 124/5/3 122/5/3 121/5/3
f 125/1/3 123/1/3 122/1/3
f 125/5/3 122/5/3 124/5/3
f 126/1/3 123/1/3 125/1/3
f 128/3/3 125/3/3 124/3/3
f 129/1/3 127/1/3 126/1/3
f 129/3/3 125/3/3 128/3/3
f 129/1/3 126/1/3 125/1/3
f 130/1/3 127/1/3 129/1/3
f 131/1/3 127/1/3 130/1/3
f 133/5/3 129/5/3 128/5/3
f 134/1/3 130/1/3 129/1/3
f 134/5/3 129/5/3 133/5/3
f 135/1/3 130/1/3 134/1/3
f 136/2/3 133/2/3 132/2/3
f 137/5/3 134/5/3 133/5/3
f 137/2/3 133/2/3 136/2/3
f 138/5/3 134/5/3 137/5/3
f 141/1/3 140/1/3 139/1/3
f 142/1/3 140/1/3 141/1/3
f 145/1/3 143/1/3 142/1/3
f 146/1/3 143/1/3 145/1/3
f 147/1/3 145/1/3 144/1/3
f 148/1/3 145/1/3 147/1/3
f 151/5/3 150/5/3 149/5/3
f 152/5/3 150/5/3 151/5/3
f 155/5/3 154/5/3 153/5/3
f 157/5/3 155/5/3 153/5/3
f 157/5/3 156/5/3 155/5/3
f 158/5/3 156/5/3 157/5/3
f 159/5/3 156/5/3 158/5/3
f 160/2/3 159/2/3 158/2/3
f 161/2/3 159/2/3 160/2/3
f 165/2/3 163/2/3 162/2/3
f 166/5/3 164/5/3 163/5/3
f 166/2/3 163/2/3 165/2/3
f 167/5/3 164/5/3 166/5/3
f 170/1/3 169/1/3 168/1/3
f 171/1/3 169/1/3 170/1/3
f 175/2/3 173/2/3 172/2/3
f 176/5/3 174/5/3 173/5/3
f 176/2/3 173/2/3 175/2/3
f 177/5/3 174/5/3 176/5/3
f 178/2/4 179/2/4 181/2/4
f 179/5/4 180/5/4 182/5/4
f 181/2/4 179/2/4 182/2/4
f 182/5/4 180/5/4 183/5/4
f 184/1/4 185/1/4 186/1/4
f 186/1/4 185/1/4 187/1/4
f 188/2/4 189/2/4 191/2/4
f 189/5/4 190/5/4 192/5/4
f 191/2/4 189/2/4 192/2/4
f 192/5/4 190/5/4 193/5/4
f 194/5/4 195/5/4 196/5/4
f 196/5/4 195/5/4 197/5/4
f 198/5/4 199/5/4 200/5/4
f 198/5/4 200/5/4 202/5/4
f 200/5/4 201/5/4 202/5/4
f 202/5/4 201/5/4 203/5/4
f 203/5/4 201/5/4 204/5/4
f 203/2/4 204/2/4 205/2/4
f 205/2/4 204/2/4 206/2/4
f 207/1/4 208/1/4 209/1/4
f 209/1/4 208/1/4 210/1/4
f 210/1/4 211/1/4 213/1/4
f 213/1/4 211/1/4 214/1/4
f 212/1/4 213/1/4 215/1/4
f 215/1/4 213/1/4 216/1/4
f 217/2/4 218/2/4 220/2/4
f 218/5/4 219/5/4 221/5/4
f 220/2/4 218/2/4 221/2/4
f 221/5/4 219/5/4 222/5/4
f 221/5/4 222/5/4 224/5/4
f 222/1/4 223/1/4 225/1/4
f 224/5/4 222/5/4 225/5/4
f 225/1/4 223/1/4 226/1/4
f 224/3/4 225/3/4 228/3/4
f 226/1/4 227/1/4 229/1/4
f 228/3/4 225/3/4 229/3/4
f 225/1/4 226/1/4 229/1/4
f 229/1/4 227/1/4 230/1/4
f 230/1/4 227/1/4 231/1/4
f 228/5/4 229/5/4 233/5/4
f 229/1/4 230/1/4 234/1/4
f 233/5/4 229/5/4 234/5/4
f 234/1/4 230/1/4 235/1/4
f 232/2/4 233/2/4 236/2/4
f 233/5/4 234/5/4 237/5/4
f 236/2/4 233/2/4 237/2/4
f 237/5/4 234/5/4 238/5/4
f 243/2/5 240/2/5 239/2/5
f 244/2/5 240/2/5 243/2/5
f 245/2/5 242/2/5 241/2/5
f 246/2/5 242/2/5 245/2/5
f 251/2/5 248/2/5 247/2/5
f 252/2/5 248/2/5 251/2/5
f 253/2/5 250/2/5 249/2/5
f 254/2/5 250/2/5 253/2/5
f 259/5/5 256/5/5 255/5/5
f 260/3/5 257/3/5 256/3/5
f 260/5/5 256/5/5 259/5/5
f 261/5/5 258/5/5 257/5/5
f 261/3/5 257/3/5 260/3/5
f 262/5/5 258/5/5 261/5/5
f 264/3/5 260/3/5 259/3/5
f 264/3/5 261/3/5 260/3/5
f 264/3/5 262/3/5 261/3/5
f 265/3/5 262/3/5 264/3/5
f 267/5/5 264/5/5 263/5/5
f 268/3/5 265/3/5 264/3/5
f 268/5/5 264/5/5 267/5/5
f 269/5/5 266/5/5 265/5/5
f 269/3/5 265/3/5 268/3/5
f 270/5/5 266/5/5 269/5/5
f 271/3/5 269/3/5 268/3/5
f 272/3/5 269/3/5 271/3/5
f 273/3/5 269/3/5 272/3/5
f 274/3/5 269/3/5 273/3/5
f 275/5/5 272/5/5 271/5/5
f 276/3/5 273/3/5 272/3/5
f 276/5/5 272/5/5 275/5/5
f 277/5/5 274/5/5 273/5/5
f 277/3/5 273/3/5 276/3/5
f 278/5/5 274/5/5 277/5/5
f 281/2/5 280/2/5 279/2/5
f 282/2/5 280/2/5 281/2/5
f 285/4/5 284/4/5 283/4/5
f 286/4/5 284/4/5 285/4/5
f 287/5/6 288/5/6 291/5/6
f 291/5/6 288/5/6 292/5/6
f 289/5/6 290/5/6 295/5/6
f 295/5/6 290/5/6 296/5/6
f 297/5/6 298/5/6 301/5/6
f 301/5/6 298/5/6 302/5/6
f 299/5/6 300/5/6 303/5/6
f 303/5/6 300/5/6 304/5/6
f 293/3/6 294/3/6 307/3/6
f 307/3/6 294/3/6 308/3/6
f 305/5/6 306/5/6 311/5/6
f 311/5/6 306/5/6 312/5/6
f 309/5/6 310/5/6 313/5/6
f 313/5/6 310/5/6 314/5/6
f 315/1/6 316/1/6 319/1/6
f 319/1/6 316/1/6 320/1/6
f 317/1/6 318/1/6 321/1/6
f 321/1/6 318/1/6 322/1/6
f 323/5/6 324/5/6 326/5/6
f 324/2/6 325/2/6 327/2/6
f 326/5/6 324/5/6 327/5/6
f 327/2/6 325/2/6 328/2/6
f 329/1/6 330/1/6 333/1/6
f 333/1/6 330/1/6 334/1/6
f 331/1/6 332/1/6 335/1/6
f 335/1/6 332/1/6 336/1/6
f 337/1/6 338/1/6 340/1/6
f 340/1/6 338/1/6 341/1/6
f 339/1/6 340/1/6 343/1/6
f 343/1/6 340/1/6 344/1/6
f 341/1/6 342/1/6 345/1/6
f 345/1/6 342/1/6 346/1/6
f 344/1/6 345/1/6 347/1/6
f 347/1/6 345/1/6 348/1/6
f 349/1/6 350/1/6 351/1/6
f 351/1/6 350/1/6 352/1/6
